<?xml version="1.0" encoding="utf-8"?>
<svg id="master-artboard" viewBox="0 0 779.807861328125 360.0318603515625" version="1.1" xmlns="http://www.w3.org/2000/svg" x="0px" y="0px" style="enable-background:new 0 0 1096 780;" width="779.807861328125px" height="360.0318603515625px"><rect id="ee-background" x="0" y="0" width="779.807861328125" height="360.0318603515625" style="fill: white; fill-opacity: 0; pointer-events: none;"/><defs><style id="ee-google-fonts">@import url(https://fonts.googleapis.com/css?family=Acme:400);</style></defs>


<g transform="matrix(0.6325303316116333, 0, 0, 0.6325303316116333, 163.84806442260742, -129.73941040039062)">
			<g>
				<path class="st2" d="M730.6,363.6c-3.3,0-6.5,0.3-9.6,1c-11.6-20.8-33.7-34.9-59.2-34.9c-2.3,0-4.5,0.1-6.7,0.3&#10;&#9;&#9;&#9;&#9;&#9;c-13.1-31.1-43.9-52.9-79.7-52.9c-33.1,0-61.8,18.6-76.4,45.9c-25.5,0.2-47.9,13.2-61.1,32.8c-2.9-0.5-5.9-0.8-8.9-0.8&#10;&#9;&#9;&#9;&#9;&#9;c-1.2,0-2.4,0.1-3.6,0.1c-26,1.9-46.5,23.4-46.7,49.9h398.1C774.3,381.8,754.6,363.6,730.6,363.6z M577.7,297.5&#10;&#9;&#9;&#9;&#9;&#9;c-4,0-7.3-3.3-7.3-7.3c0-4,3.3-7.3,7.3-7.3c4,0,7.3,3.3,7.3,7.3C585,294.2,581.7,297.5,577.7,297.5z" style="fill: rgb(228, 229, 230);"/>
				<path class="st3" d="M717.5,352.7c-3.3,0-6.5,0.3-9.6,1c-11.6-20.8-33.7-34.9-59.2-34.9c-2.3,0-4.5,0.1-6.7,0.3&#10;&#9;&#9;&#9;&#9;&#9;c-13.1-31.1-43.9-52.9-79.7-52.9c-33.1,0-61.8,18.6-76.4,45.9c-25.5,0.2-47.9,13.2-61.1,32.8c-2.9-0.5-5.8-0.8-8.9-0.8&#10;&#9;&#9;&#9;&#9;&#9;c-1.2,0-2.4,0.1-3.6,0.1c-26,1.9-46.5,23.4-46.7,49.9h398.1C761.2,370.9,741.5,352.7,717.5,352.7z" style="fill: rgb(255, 255, 255);"/>
				<g>
					<path class="st4" d="M694.6,336.8c-11.3-10.5-29.8-19.9-52.6-17.6c2.2,3.6,4.1,7.4,5.7,11.3c2.2-0.2,14.8-0.6,17.1-0.6&#10;&#9;&#9;&#9;&#9;&#9;&#9;C675.5,329.9,685.6,332.4,694.6,336.8z" style="fill: rgb(218, 219, 220);"/>
					<path class="st4" d="M716.4,365.7c3.1-0.7,13.9-2,17.2-2c6.2,0,12.1,1.2,17.6,3.5c-8.4-8.9-20.4-14.5-33.6-14.5&#10;&#9;&#9;&#9;&#9;&#9;&#9;c-0.7,0-5.2,0-9.6,1C711.2,357.4,714,361.4,716.4,365.7z" style="fill: rgb(218, 219, 220);"/>
					<path class="st4" d="M428.3,355.3c1.2-0.1,2.4-0.1,3.6-0.1c3,0,6,0.3,8.9,0.8c13.3-19.6,35.7-32.6,61.1-32.8&#10;&#9;&#9;&#9;&#9;&#9;&#9;c11.4-21.3,31.4-37.3,55.4-43.3c0-0.2,18.7-2.6,21-2.6c14.6,0,28.4,3.6,40.4,10c-15.2-13.1-34.9-21.1-56.5-21.1&#10;&#9;&#9;&#9;&#9;&#9;&#9;c-33.1,0-61.8,18.6-76.4,45.9c-25.5,0.2-47.9,13.2-61.1,32.8c-2.9-0.5-5.8-0.8-8.9-0.8c-1.2,0-2.4,0.1-3.6,0.1&#10;&#9;&#9;&#9;&#9;&#9;&#9;c-26,1.9-46.5,23.4-46.7,49.9h17.4C387.8,373,406.1,356.9,428.3,355.3z" style="fill: rgb(218, 219, 220);"/>
				</g>
			</g>
			
		<path d="M 13.140778541564941 413.9465637207031 L 3.5907788276672363 413.9465637207031 L 3.5907788276672363 396.8165588378906 L 13.140778541564941 396.8165588378906 L 13.140778541564941 398.5865783691406 L 5.580779075622559 398.5865783691406 L 5.580779075622559 404.1065673828125 L 12.680778503417969 404.1065673828125 L 12.680778503417969 405.8565673828125 L 5.580779075622559 405.8565673828125 L 5.580779075622559 412.16656494140625 L 13.140778541564941 412.16656494140625 L 13.140778541564941 413.9465637207031 ZM 25.426677703857422 413.9465637207031 L 25.426677703857422 405.6365661621094 C 25.426677703857422 404.58990478515625 25.19001007080078 403.8099060058594 24.716678619384766 403.29656982421875 C 24.236677169799805 402.77655029296875 23.490009307861328 402.5165710449219 22.47667694091797 402.5165710449219 C 21.1300106048584 402.5165710449219 20.146677017211914 402.8798828125 19.526676177978516 403.6065673828125 C 18.90001106262207 404.3332214355469 18.58667755126953 405.5332336425781 18.58667755126953 407.2065734863281 L 18.58667755126953 413.9465637207031 L 16.636676788330078 413.9465637207031 L 16.636676788330078 401.1065673828125 L 18.216676712036133 401.1065673828125 L 18.536678314208984 402.8565673828125 L 18.626678466796875 402.8565673828125 C 19.026676177978516 402.2232360839844 19.58667755126953 401.73321533203125 20.306676864624023 401.3865661621094 C 21.026676177978516 401.0398864746094 21.826677322387695 400.8665771484375 22.706676483154297 400.8665771484375 C 24.25334358215332 400.8665771484375 25.42000961303711 401.2398986816406 26.206676483154297 401.986572265625 C 26.986677169799805 402.73321533203125 27.376678466796875 403.92657470703125 27.376678466796875 405.5665588378906 L 27.376678466796875 413.9465637207031 L 25.426677703857422 413.9465637207031 ZM 35.51520538330078 412.5765686035156 C 35.861873626708984 412.5765686035156 36.19520568847656 412.5498962402344 36.51520538330078 412.4965515136719 C 36.835205078125 412.44989013671875 37.088539123535156 412.3965759277344 37.27520751953125 412.3365783691406 L 37.27520751953125 413.8265686035156 C 37.06187438964844 413.9332275390625 36.75187301635742 414.0165710449219 36.34520721435547 414.0765686035156 C 35.9318733215332 414.1432189941406 35.56187438964844 414.17657470703125 35.235206604003906 414.17657470703125 C 32.748538970947266 414.17657470703125 31.505207061767578 412.8699035644531 31.505207061767578 410.2565612792969 L 31.505207061767578 402.6165771484375 L 29.665206909179688 402.6165771484375 L 29.665206909179688 401.67657470703125 L 31.505207061767578 400.8665771484375 L 32.3252067565918 398.1265563964844 L 33.45520782470703 398.1265563964844 L 33.45520782470703 401.1065673828125 L 37.18520736694336 401.1065673828125 L 37.18520736694336 402.6165771484375 L 33.45520782470703 402.6165771484375 L 33.45520782470703 410.17657470703125 C 33.45520782470703 410.94989013671875 33.6385383605957 411.5432434082031 34.00520706176758 411.9565734863281 C 34.37187194824219 412.3699035644531 34.875205993652344 412.5765686035156 35.51520538330078 412.5765686035156 ZM 45.266746520996094 414.17657470703125 C 43.36674499511719 414.17657470703125 41.86674499511719 413.5998840332031 40.766746520996094 412.4465637207031 C 39.67341232299805 411.2932434082031 39.12674331665039 409.6865539550781 39.12674331665039 407.6265563964844 C 39.12674331665039 405.5599060058594 39.63674545288086 403.91656494140625 40.65674591064453 402.6965637207031 C 41.6767463684082 401.4765625 43.04341125488281 400.8665771484375 44.756744384765625 400.8665771484375 C 46.370079040527344 400.8665771484375 47.643409729003906 401.3965759277344 48.576744079589844 402.4565734863281 C 49.516746520996094 403.5165710449219 49.98674392700195 404.9132385253906 49.98674392700195 406.6465759277344 L 49.98674392700195 407.8765563964844 L 41.13674545288086 407.8765563964844 C 41.1767463684082 409.38323974609375 41.56007766723633 410.52655029296875 42.2867431640625 411.3065490722656 C 43.006744384765625 412.0932312011719 44.02341079711914 412.486572265625 45.33674621582031 412.486572265625 C 46.71674346923828 412.486572265625 48.083412170410156 412.1965637207031 49.436744689941406 411.6165771484375 L 49.436744689941406 413.3465576171875 C 48.75007629394531 413.6465759277344 48.10007858276367 413.8598937988281 47.48674392700195 413.986572265625 C 46.8734130859375 414.11322021484375 46.1334114074707 414.17657470703125 45.266746520996094 414.17657470703125 M 44.73674392700195 402.4965515136719 C 43.70341110229492 402.4965515136719 42.88007736206055 402.8332214355469 42.266746520996094 403.5065612792969 C 41.653411865234375 404.1799011230469 41.29341125488281 405.1098937988281 41.186744689941406 406.29656982421875 L 47.90674591064453 406.29656982421875 C 47.90674591064453 405.06988525390625 47.63007736206055 404.1298828125 47.076744079589844 403.4765625 C 46.53007888793945 402.8232421875 45.75007629394531 402.4965515136719 44.73674392700195 402.4965515136719 ZM 59.159812927246094 400.8665771484375 C 59.7331428527832 400.8665771484375 60.24647903442383 400.9132385253906 60.69981002807617 401.0065612792969 L 60.4298095703125 402.8165588378906 C 59.89647674560547 402.6965637207031 59.426475524902344 402.6365661621094 59.01980972290039 402.6365661621094 C 57.97981262207031 402.6365661621094 57.093143463134766 403.0599060058594 56.35980987548828 403.90655517578125 C 55.61981201171875 404.7465515136719 55.24980926513672 405.79656982421875 55.24980926513672 407.0565490722656 L 55.24980926513672 413.9465637207031 L 53.29981231689453 413.9465637207031 L 53.29981231689453 401.1065673828125 L 54.909812927246094 401.1065673828125 L 55.12981033325195 403.486572265625 L 55.219810485839844 403.486572265625 C 55.69981002807617 402.6465759277344 56.2764778137207 401.9999084472656 56.94981002807617 401.54656982421875 C 57.616477966308594 401.0932312011719 58.353145599365234 400.8665771484375 59.159812927246094 400.8665771484375 ZM 67.28894805908203 401.1065673828125 L 69.37895202636719 401.1065673828125 L 72.18894958496094 408.42657470703125 C 72.80895233154297 410.0998840332031 73.1922836303711 411.3065490722656 73.33895111083984 412.04656982421875 L 73.428955078125 412.04656982421875 C 73.5356216430664 411.6465759277344 73.74895477294922 410.966552734375 74.06895446777344 410.0065612792969 C 74.39561462402344 409.0398864746094 75.45561981201172 406.0732421875 77.24894714355469 401.1065673828125 L 79.33895111083984 401.1065673828125 L 73.81895446777344 415.7265625 C 73.27228546142578 417.1732177734375 72.63228607177734 418.19989013671875 71.8989486694336 418.8065490722656 C 71.17228698730469 419.4132385253906 70.2789535522461 419.716552734375 69.21894836425781 419.716552734375 C 68.61894989013672 419.716552734375 68.03228759765625 419.64990234375 67.45895385742188 419.5165710449219 L 67.45895385742188 417.9565734863281 C 67.8856201171875 418.0498962402344 68.36561584472656 418.0965576171875 68.8989486694336 418.0965576171875 C 70.23228454589844 418.0965576171875 71.18561553955078 417.3465576171875 71.75894927978516 415.8465576171875 L 72.46894836425781 414.0165710449219 L 67.28894805908203 401.1065673828125 ZM 92.5111083984375 407.5165710449219 C 92.5111083984375 409.6098937988281 91.98443603515625 411.24322509765625 90.93110656738281 412.41656494140625 C 89.87110900878906 413.58990478515625 88.41444396972656 414.17657470703125 86.56110382080078 414.17657470703125 C 85.40777587890625 414.17657470703125 84.38777160644531 413.909912109375 83.50110626220703 413.3765563964844 C 82.60777282714844 412.8365783691406 81.91777038574219 412.063232421875 81.43110656738281 411.0565490722656 C 80.95110321044922 410.0432434082031 80.71110534667969 408.86322021484375 80.71110534667969 407.5165710449219 C 80.71110534667969 405.4232177734375 81.23444366455078 403.7898864746094 82.2811050415039 402.6165771484375 C 83.32777404785156 401.44989013671875 84.7811050415039 400.8665771484375 86.64110565185547 400.8665771484375 C 88.43444061279297 400.8665771484375 89.8611068725586 401.4632263183594 90.92110443115234 402.65655517578125 C 91.98110961914062 403.8565673828125 92.5111083984375 405.4765625 92.5111083984375 407.5165710449219 M 82.72110748291016 407.5165710449219 C 82.72110748291016 409.15655517578125 83.05110931396484 410.40655517578125 83.71110534667969 411.2665710449219 C 84.36444091796875 412.1265563964844 85.32777404785156 412.5565490722656 86.60110473632812 412.5565490722656 C 87.87444305419922 412.5565490722656 88.84111022949219 412.1265563964844 89.50110626220703 411.2665710449219 C 90.1611099243164 410.4132385253906 90.49110412597656 409.1632385253906 90.49110412597656 407.5165710449219 C 90.49110412597656 405.88323974609375 90.1611099243164 404.6432189941406 89.50110626220703 403.79656982421875 C 88.84111022949219 402.9432373046875 87.8677749633789 402.5165710449219 86.58110809326172 402.5165710449219 C 85.30776977539062 402.5165710449219 84.34777069091797 402.9365539550781 83.70111083984375 403.77655029296875 C 83.04777526855469 404.6098937988281 82.72110748291016 405.8565673828125 82.72110748291016 407.5165710449219 ZM 97.74528503417969 401.1065673828125 L 97.74528503417969 409.4365539550781 C 97.74528503417969 410.48321533203125 97.98528289794922 411.26324462890625 98.46528625488281 411.77655029296875 C 98.9386215209961 412.29656982421875 99.68195343017578 412.5565490722656 100.69528198242188 412.5565490722656 C 102.04195404052734 412.5565490722656 103.02528381347656 412.1865539550781 103.6452865600586 411.4465637207031 C 104.26528930664062 410.7132263183594 104.57528686523438 409.5165710449219 104.57528686523438 407.8565673828125 L 104.57528686523438 401.1065673828125 L 106.52528381347656 401.1065673828125 L 106.52528381347656 413.9465637207031 L 104.915283203125 413.9465637207031 L 104.63528442382812 412.2265625 L 104.53528594970703 412.2265625 C 104.13528442382812 412.8598937988281 103.58195495605469 413.3432312011719 102.87528991699219 413.67657470703125 C 102.16861724853516 414.0098876953125 101.36195373535156 414.17657470703125 100.45528411865234 414.17657470703125 C 98.88861846923828 414.17657470703125 97.71862030029297 413.8065490722656 96.94528198242188 413.0665588378906 C 96.165283203125 412.3265686035156 95.77528381347656 411.139892578125 95.77528381347656 409.5065612792969 L 95.77528381347656 401.1065673828125 L 97.74528503417969 401.1065673828125 ZM 116.50381469726562 400.8665771484375 C 117.0771484375 400.8665771484375 117.59048461914062 400.9132385253906 118.04381561279297 401.0065612792969 L 117.77381896972656 402.8165588378906 C 117.24048614501953 402.6965637207031 116.7704849243164 402.6365661621094 116.36381530761719 402.6365661621094 C 115.32381439208984 402.6365661621094 114.43714904785156 403.0599060058594 113.70381927490234 403.90655517578125 C 112.96381378173828 404.7465515136719 112.59381866455078 405.79656982421875 112.59381866455078 407.0565490722656 L 112.59381866455078 413.9465637207031 L 110.64381408691406 413.9465637207031 L 110.64381408691406 401.1065673828125 L 112.25381469726562 401.1065673828125 L 112.47381591796875 403.486572265625 L 112.5638198852539 403.486572265625 C 113.04381561279297 402.6465759277344 113.6204833984375 401.9999084472656 114.29381561279297 401.54656982421875 C 114.96047973632812 401.0932312011719 115.69715118408203 400.8665771484375 116.50381469726562 400.8665771484375 ZM 130.8229522705078 412.5765686035156 C 131.16961669921875 412.5765686035156 131.50296020507812 412.5498962402344 131.8229522705078 412.4965515136719 C 132.14295959472656 412.44989013671875 132.3962860107422 412.3965759277344 132.58294677734375 412.3365783691406 L 132.58294677734375 413.8265686035156 C 132.36961364746094 413.9332275390625 132.0596160888672 414.0165710449219 131.6529541015625 414.0765686035156 C 131.2396240234375 414.1432189941406 130.86961364746094 414.17657470703125 130.54295349121094 414.17657470703125 C 128.05628967285156 414.17657470703125 126.81295013427734 412.8699035644531 126.81295013427734 410.2565612792969 L 126.81295013427734 402.6165771484375 L 124.97295379638672 402.6165771484375 L 124.97295379638672 401.67657470703125 L 126.81295013427734 400.8665771484375 L 127.63294982910156 398.1265563964844 L 128.76295471191406 398.1265563964844 L 128.76295471191406 401.1065673828125 L 132.49295043945312 401.1065673828125 L 132.49295043945312 402.6165771484375 L 128.76295471191406 402.6165771484375 L 128.76295471191406 410.17657470703125 C 128.76295471191406 410.94989013671875 128.9462890625 411.5432434082031 129.31295776367188 411.9565734863281 C 129.67962646484375 412.3699035644531 130.18295288085938 412.5765686035156 130.8229522705078 412.5765686035156 ZM 140.57449340820312 414.17657470703125 C 138.6744842529297 414.17657470703125 137.1744842529297 413.5998840332031 136.07449340820312 412.4465637207031 C 134.9811553955078 411.2932434082031 134.4344940185547 409.6865539550781 134.4344940185547 407.6265563964844 C 134.4344940185547 405.5599060058594 134.94448852539062 403.91656494140625 135.96449279785156 402.6965637207031 C 136.98448181152344 401.4765625 138.3511505126953 400.8665771484375 140.06448364257812 400.8665771484375 C 141.67782592773438 400.8665771484375 142.95115661621094 401.3965759277344 143.88449096679688 402.4565734863281 C 144.82449340820312 403.5165710449219 145.29449462890625 404.9132385253906 145.29449462890625 406.6465759277344 L 145.29449462890625 407.8765563964844 L 136.44448852539062 407.8765563964844 C 136.48448181152344 409.38323974609375 136.86782836914062 410.52655029296875 137.594482421875 411.3065490722656 C 138.31448364257812 412.0932312011719 139.33116149902344 412.486572265625 140.6444854736328 412.486572265625 C 142.0244903564453 412.486572265625 143.3911590576172 412.1965637207031 144.74449157714844 411.6165771484375 L 144.74449157714844 413.3465576171875 C 144.0578155517578 413.6465759277344 143.40782165527344 413.8598937988281 142.79449462890625 413.986572265625 C 142.18115234375 414.11322021484375 141.441162109375 414.17657470703125 140.57449340820312 414.17657470703125 M 140.04449462890625 402.4965515136719 C 139.0111541748047 402.4965515136719 138.1878204345703 402.8332214355469 137.57449340820312 403.5065612792969 C 136.96115112304688 404.1799011230469 136.6011505126953 405.1098937988281 136.49449157714844 406.29656982421875 L 143.21449279785156 406.29656982421875 C 143.21449279785156 405.06988525390625 142.9378204345703 404.1298828125 142.38449096679688 403.4765625 C 141.8378143310547 402.8232421875 141.0578155517578 402.4965515136719 140.04449462890625 402.4965515136719 ZM 151.70755004882812 407.3765563964844 L 147.237548828125 401.1065673828125 L 149.45755004882812 401.1065673828125 L 152.83753967285156 406.02655029296875 L 156.21754455566406 401.1065673828125 L 158.4075469970703 401.1065673828125 L 153.9375457763672 407.3765563964844 L 158.63754272460938 413.9465637207031 L 156.4375457763672 413.9465637207031 L 152.83753967285156 408.7465515136719 L 149.20755004882812 413.9465637207031 L 147.00755310058594 413.9465637207031 L 151.70755004882812 407.3765563964844 ZM 165.3301239013672 412.5765686035156 C 165.67678833007812 412.5765686035156 166.01011657714844 412.5498962402344 166.3301239013672 412.4965515136719 C 166.65011596679688 412.44989013671875 166.90345764160156 412.3965759277344 167.09011840820312 412.3365783691406 L 167.09011840820312 413.8265686035156 C 166.8767852783203 413.9332275390625 166.56678771972656 414.0165710449219 166.1601104736328 414.0765686035156 C 165.7467803955078 414.1432189941406 165.3767852783203 414.17657470703125 165.05010986328125 414.17657470703125 C 162.56344604492188 414.17657470703125 161.3201141357422 412.8699035644531 161.3201141357422 410.2565612792969 L 161.3201141357422 402.6165771484375 L 159.48011779785156 402.6165771484375 L 159.48011779785156 401.67657470703125 L 161.3201141357422 400.8665771484375 L 162.14012145996094 398.1265563964844 L 163.27011108398438 398.1265563964844 L 163.27011108398438 401.1065673828125 L 167.0001220703125 401.1065673828125 L 167.0001220703125 402.6165771484375 L 163.27011108398438 402.6165771484375 L 163.27011108398438 410.17657470703125 C 163.27011108398438 410.94989013671875 163.4534454345703 411.5432434082031 163.8201141357422 411.9565734863281 C 164.18678283691406 412.3699035644531 164.69012451171875 412.5765686035156 165.3301239013672 412.5765686035156 ZM 184.6752166748047 413.9465637207031 L 184.6752166748047 405.6365661621094 C 184.6752166748047 404.58990478515625 184.43853759765625 403.8099060058594 183.9652099609375 403.29656982421875 C 183.48521423339844 402.77655029296875 182.73854064941406 402.5165710449219 181.72520446777344 402.5165710449219 C 180.3718719482422 402.5165710449219 179.3852081298828 402.8865661621094 178.7652130126953 403.6265563964844 C 178.1452178955078 404.3598937988281 177.835205078125 405.563232421875 177.835205078125 407.236572265625 L 177.835205078125 413.9465637207031 L 175.8852081298828 413.9465637207031 L 175.8852081298828 395.716552734375 L 177.835205078125 395.716552734375 L 177.835205078125 401.236572265625 C 177.835205078125 401.8965759277344 177.8018798828125 402.4465637207031 177.73521423339844 402.8865661621094 L 177.85520935058594 402.8865661621094 C 178.24188232421875 402.2665710449219 178.78854370117188 401.7799072265625 179.49520874023438 401.42657470703125 C 180.20187377929688 401.0732421875 181.008544921875 400.8965759277344 181.9152069091797 400.8965759277344 C 183.48187255859375 400.8965759277344 184.65853881835938 401.2665710449219 185.44520568847656 402.0065612792969 C 186.23187255859375 402.75323486328125 186.62521362304688 403.9399108886719 186.62521362304688 405.5665588378906 L 186.62521362304688 413.9465637207031 L 184.6752166748047 413.9465637207031 ZM 196.0437469482422 414.17657470703125 C 194.14373779296875 414.17657470703125 192.64373779296875 413.5998840332031 191.5437469482422 412.4465637207031 C 190.45040893554688 411.2932434082031 189.90374755859375 409.6865539550781 189.90374755859375 407.6265563964844 C 189.90374755859375 405.5599060058594 190.4137420654297 403.91656494140625 191.43374633789062 402.6965637207031 C 192.4537353515625 401.4765625 193.82040405273438 400.8665771484375 195.5337371826172 400.8665771484375 C 197.14707946777344 400.8665771484375 198.42041015625 401.3965759277344 199.35374450683594 402.4565734863281 C 200.2937469482422 403.5165710449219 200.7637481689453 404.9132385253906 200.7637481689453 406.6465759277344 L 200.7637481689453 407.8765563964844 L 191.9137420654297 407.8765563964844 C 191.9537353515625 409.38323974609375 192.3370819091797 410.52655029296875 193.06373596191406 411.3065490722656 C 193.7837371826172 412.0932312011719 194.8004150390625 412.486572265625 196.11373901367188 412.486572265625 C 197.49374389648438 412.486572265625 198.86041259765625 412.1965637207031 200.2137451171875 411.6165771484375 L 200.2137451171875 413.3465576171875 C 199.52706909179688 413.6465759277344 198.8770751953125 413.8598937988281 198.2637481689453 413.986572265625 C 197.65040588378906 414.11322021484375 196.910400390625 414.17657470703125 196.0437469482422 414.17657470703125 M 195.5137481689453 402.4965515136719 C 194.48040771484375 402.4965515136719 193.65707397460938 402.8332214355469 193.0437469482422 403.5065612792969 C 192.43040466308594 404.1799011230469 192.07040405273438 405.1098937988281 191.9637451171875 406.29656982421875 L 198.68374633789062 406.29656982421875 C 198.68374633789062 405.06988525390625 198.40707397460938 404.1298828125 197.85374450683594 403.4765625 C 197.30706787109375 402.8232421875 196.52706909179688 402.4965515136719 195.5137481689453 402.4965515136719 ZM 209.93679809570312 400.8665771484375 C 210.5101318359375 400.8665771484375 211.02346801757812 400.9132385253906 211.476806640625 401.0065612792969 L 211.20680236816406 402.8165588378906 C 210.6734619140625 402.6965637207031 210.20346069335938 402.6365661621094 209.7967987060547 402.6365661621094 C 208.75680541992188 402.6365661621094 207.87013244628906 403.0599060058594 207.1367950439453 403.90655517578125 C 206.3968048095703 404.7465515136719 206.02679443359375 405.79656982421875 206.02679443359375 407.0565490722656 L 206.02679443359375 413.9465637207031 L 204.07679748535156 413.9465637207031 L 204.07679748535156 401.1065673828125 L 205.68679809570312 401.1065673828125 L 205.90679931640625 403.486572265625 L 205.99679565429688 403.486572265625 C 206.476806640625 402.6465759277344 207.053466796875 401.9999084472656 207.726806640625 401.54656982421875 C 208.39346313476562 401.0932312011719 209.130126953125 400.8665771484375 209.93679809570312 400.8665771484375 ZM 219.30239868164062 414.17657470703125 C 217.4023895263672 414.17657470703125 215.9023895263672 413.5998840332031 214.80239868164062 412.4465637207031 C 213.7090606689453 411.2932434082031 213.1623992919922 409.6865539550781 213.1623992919922 407.6265563964844 C 213.1623992919922 405.5599060058594 213.67239379882812 403.91656494140625 214.69239807128906 402.6965637207031 C 215.71238708496094 401.4765625 217.0790557861328 400.8665771484375 218.79238891601562 400.8665771484375 C 220.40573120117188 400.8665771484375 221.67906188964844 401.3965759277344 222.61239624023438 402.4565734863281 C 223.55239868164062 403.5165710449219 224.02239990234375 404.9132385253906 224.02239990234375 406.6465759277344 L 224.02239990234375 407.8765563964844 L 215.17239379882812 407.8765563964844 C 215.21238708496094 409.38323974609375 215.59573364257812 410.52655029296875 216.3223876953125 411.3065490722656 C 217.04238891601562 412.0932312011719 218.05906677246094 412.486572265625 219.3723907470703 412.486572265625 C 220.7523956298828 412.486572265625 222.1190643310547 412.1965637207031 223.47239685058594 411.6165771484375 L 223.47239685058594 413.3465576171875 C 222.7857208251953 413.6465759277344 222.13572692871094 413.8598937988281 221.52239990234375 413.986572265625 C 220.9090576171875 414.11322021484375 220.1690673828125 414.17657470703125 219.30239868164062 414.17657470703125 M 218.77239990234375 402.4965515136719 C 217.7390594482422 402.4965515136719 216.9157257080078 402.8332214355469 216.30239868164062 403.5065612792969 C 215.68905639648438 404.1799011230469 215.3290557861328 405.1098937988281 215.22239685058594 406.29656982421875 L 221.94239807128906 406.29656982421875 C 221.94239807128906 405.06988525390625 221.6657257080078 404.1298828125 221.11239624023438 403.4765625 C 220.5657196044922 402.8232421875 219.7857208251953 402.4965515136719 218.77239990234375 402.4965515136719 Z" transform="matrix(1, 0, 0, 1, 0, 0)" style="fill: rgb(51, 51, 51); white-space: pre; color: rgb(51, 51, 51);"/></g><path d="M 578.200012 0 H 579.300012 V 275 H 578.200012 V 0 Z" class="st3" style="fill: rgb(255, 255, 255);" transform="matrix(0.6311065554618835, 0, 0, 0.6311065554618835, 26.736454010009766, -2.842170943040401e-14)"/><path class="st3" d="M578.4,269.7c-0.6-1.6-5.8-15.9-12.5-15.9c-1.6,0-3.2,0.9-4.6,2.6c-1.7,2-2.2,4-1.5,5.8&#10;&#9;&#9;&#9;&#9;&#9;c2.3,6.1,17,8.6,17.6,8.7l1.4,0.2L578.4,269.7z M562,256.8c7.8-9.3,15.6,13.1,15.6,13.1S554.2,266.1,562,256.8z" style="fill: rgb(255, 255, 255);" transform="matrix(0.8652594685554504, 0, 0, 0.8652594685554504, -108.00905227661133, -60.87942123413086)"/><path class="st3" d="M593.2,253.2c-1.4-1.1-2.8-1.7-4.1-1.7c-7.2,0-9.8,16.2-10.1,18.1l-0.2,1.4l1.4-0.5&#10;&#9;&#9;&#9;&#9;&#9;c0.6-0.2,14.6-5.5,15.7-11.9C596.1,256.7,595.2,254.9,593.2,253.2z M579.8,269.8c0,0,3.5-23.5,12.9-15.8&#10;&#9;&#9;&#9;&#9;&#9;C602.1,261.5,579.8,269.8,579.8,269.8z" style="fill: rgb(255, 255, 255);" transform="matrix(1, 0, 0, 1, -186.9763069152832, -97.41141510009766)"/><g transform="matrix(1.2006455659866333, 0, 0, 1.2006455659866333, -905.1073188781738, -55.6248893737793)">
			<g>
				<path class="st2" d="M808.9,156.7c0.1,0,0.2,0,0.3,0c-0.2-1.3-0.3-2.5-0.3-3.8c0-19.7,23.7-40.7,51.6-37.3&#10;&#9;&#9;&#9;&#9;&#9;c2.9,0.4,6.1,1.9,8.9,2.2c12.9-17.2,39-34.1,69.2-34.1c37,0,67.9,22.9,75.8,46.6c20.2-2,34.1,9.7,37.1,22&#10;&#9;&#9;&#9;&#9;&#9;c13.4,2.3,23.4,10.5,23.4,20.5H785.6C785.6,163.8,796,156.7,808.9,156.7z" style="fill: rgb(228, 229, 230);"/>
				<path class="st3" d="M800.1,149.8c0.1,0,0.2,0,0.3,0c-0.2-1.3-0.3-2.5-0.3-3.8c0-19.7,23.7-40.7,51.6-37.3&#10;&#9;&#9;&#9;&#9;&#9;c2.9,0.4,6.1,1.9,8.9,2.2c12.9-17.2,39-34.1,69.2-34.1c37,0,67.9,22.9,75.8,46.6c20.2-2,34.1,9.7,37.1,22&#10;&#9;&#9;&#9;&#9;&#9;c13.4,2.3,23.4,10.5,23.4,20.5H776.7C776.7,157,787.2,149.8,800.1,149.8z" style="fill: rgb(255, 255, 255);"/>
				<path class="st4" d="M800.1,160.8c0.1,0,0.2,0,0.3,0c-0.2-1.3-0.3-2.5-0.3-3.8c0-19.7,23.7-40.7,51.6-37.3&#10;&#9;&#9;&#9;&#9;&#9;c2.9,0.4,6.1,1.9,8.9,2.2c12.9-17.2,39-34.1,69.2-34.1c37,0,67.9,22.9,75.8,46.6c20.2-2,34.1,9.7,37.1,22&#10;&#9;&#9;&#9;&#9;&#9;c8,1.3,14.8,4.8,18.9,9.5h4.5c0-9.9-10-18.2-23.4-20.5c-3-12.3-17-24.1-37.1-22c-7.9-23.7-38.8-46.6-75.8-46.6&#10;&#9;&#9;&#9;&#9;&#9;c-30.1,0-56.2,16.9-69.2,34.1c-2.8-0.3-6-1.9-8.9-2.2c-27.9-3.4-51.6,17.7-51.6,37.3c0,1.3,0.1,2.6,0.3,3.8c-0.1,0-0.2,0-0.3,0&#10;&#9;&#9;&#9;&#9;&#9;c-12.9,0-23.3,7.2-23.3,16h6.3C787.3,162.7,793.3,160.8,800.1,160.8z" style="fill: rgb(218, 219, 220);"/>
			</g>
			
		</g><path class="st3" d="M846.8,475.7c-0.6-1.6-5.8-15.9-12.5-15.9c-1.6,0-3.2,0.9-4.6,2.6c-1.7,2-2.2,4-1.5,5.8&#10;&#9;&#9;&#9;&#9;&#9;c2.3,6.1,17,8.6,17.6,8.7l1.4,0.2L846.8,475.7z M830.3,462.8c7.8-9.3,15.6,13.1,15.6,13.1S822.5,472.1,830.3,462.8z" style="fill: rgb(255, 255, 255);" transform="matrix(1, 0, 0, 1, -318.6678047180176, -438.4449768066406)"/><path class="st3" d="M861.6,459.2c-1.4-1.1-2.8-1.7-4.1-1.7c-7.2,0-9.8,16.2-10.1,18.1l-0.2,1.4l1.4-0.5&#10;&#9;&#9;&#9;&#9;&#9;c0.6-0.2,14.6-5.5,15.7-11.9C864.4,462.7,863.6,460.9,861.6,459.2z M848.1,475.7c0,0,3.5-23.5,12.9-15.8&#10;&#9;&#9;&#9;&#9;&#9;C870.4,467.5,848.1,475.7,848.1,475.7z" style="fill: rgb(255, 255, 255);" transform="matrix(1, 0, 0, 1, -320.6295356750488, -437.464111328125)"/><g transform="matrix(1.0456710314553332, 0, 0, 1.0456710314553332, 0.8772111531764342, 135.02245026101946)">
			<g>
				<path class="st2" d="M677.1,184.5c-6.8-20.4-26.1-35.1-48.7-35.1c-8.2,0-15.9,1.9-22.7,5.3c-8.8-4.8-18.9-7.6-29.7-7.6&#10;&#9;&#9;&#9;&#9;&#9;c-2.5,0-5,0.2-7.4,0.5c-13.7-24.1-39.7-40.4-69.4-40.4c-2.5,0-4.9,0.1-7.3,0.3c-18.1-36.7-56-62-99.7-62&#10;&#9;&#9;&#9;&#9;&#9;c-42,0-78.5,23.3-97.4,57.7c-4.5-0.7-9-1.1-13.7-1.1c-37.7,0-69.7,24.6-80.7,58.6c-1.4-0.1-2.8-0.2-4.2-0.2&#10;&#9;&#9;&#9;&#9;&#9;c-26.7,0-48.3,21.6-48.3,48.3c0,0.7,0,1.3,0,1.9H716C709.5,195.6,694.6,184.9,677.1,184.5z M391.4,65.9c-3.9,0-7.1-3.2-7.1-7.1&#10;&#9;&#9;&#9;&#9;&#9;c0-3.9,3.2-7.1,7.1-7.1c3.9,0,7.1,3.2,7.1,7.1C398.5,62.7,395.4,65.9,391.4,65.9z" style="fill: rgb(228, 229, 230);"/>
				<path class="st3" d="M660,169.7c-6.8-20.4-26.1-35.1-48.7-35.1c-8.2,0-15.9,1.9-22.7,5.3c-8.8-4.8-18.9-7.6-29.7-7.6&#10;&#9;&#9;&#9;&#9;&#9;c-2.5,0-5,0.2-7.4,0.5c-13.7-24.1-39.7-40.4-69.4-40.4c-2.5,0-4.9,0.1-7.3,0.3c-18.1-36.7-56-62-99.7-62&#10;&#9;&#9;&#9;&#9;&#9;c-42,0-78.5,23.3-97.4,57.7c-4.5-0.7-9-1.1-13.7-1.1c-37.7,0-69.7,24.6-80.7,58.6c-1.4-0.1-2.8-0.2-4.2-0.2&#10;&#9;&#9;&#9;&#9;&#9;c-26.7,0-48.3,21.6-48.3,48.3c0,0.7,0,1.3,0,1.9h568.1C692.4,180.7,677.5,170,660,169.7z" style="fill: rgb(255, 255, 255);"/>
				<g>
					<path class="st4" d="M666.6,184.3c7.9,0.2,23.4,2.6,29.7,6.5c-6.2-10.4-18.8-20.7-36.3-21.1&#10;&#9;&#9;&#9;&#9;&#9;&#9;C663.1,173.9,664.9,179.2,666.6,184.3z" style="fill: rgb(218, 219, 220);"/>
					<path class="st4" d="M562.7,147.9c2.4-0.3,8.4-0.8,10.9-0.8c10.8,0,20.9,2.8,29.7,7.6c6.9-3.4,14.6-5.3,22.7-5.3&#10;&#9;&#9;&#9;&#9;&#9;&#9;c10.5,0,20.2,3.1,28.4,8.5c-9.2-14.1-25-23.4-43.1-23.4c-8.2,0-15.9,1.9-22.7,5.3c-8.8-4.8-18.9-7.6-29.7-7.6&#10;&#9;&#9;&#9;&#9;&#9;&#9;c-1.3,0-4.2,0.1-7.4,0.5C555.7,137.3,559.5,142.4,562.7,147.9z" style="fill: rgb(218, 219, 220);"/>
					<path class="st4" d="M193.7,160.5c1.4,0,2.8,0.1,4.2,0.2c11.1-34,43-58.6,80.7-58.6c4.7,0,9.2,0.4,13.7,1.1&#10;&#9;&#9;&#9;&#9;&#9;&#9;c15.6-28.4,43.2-49.1,76-55.6c0.8-0.6,11-1.8,12.8-1.7c2.9-0.2,5.7-0.3,8.6-0.3c27.1,0,51.9,9.7,71.2,25.8&#10;&#9;&#9;&#9;&#9;&#9;&#9;c-20.4-24.8-51.3-40.7-85.9-40.7c-42,0-78.5,23.3-97.4,57.7c-4.5-0.7-9-1.1-13.7-1.1c-37.7,0-69.7,24.6-80.7,58.6&#10;&#9;&#9;&#9;&#9;&#9;&#9;c-1.4-0.1-2.8-0.2-4.2-0.2c-26.7,0-48.3,21.6-48.3,48.3c0,0.7,0,1.3,0,1.9h16.4C152.9,175.5,171.5,160.5,193.7,160.5z" style="fill: rgb(218, 219, 220);"/>
					<path class="st4" d="M483.9,107.8c2.4-0.2,10.4-0.7,12.9-0.7c18.4,0,35.3,6.2,48.8,16.7C531,104.7,508,92.3,482,92.3&#10;&#9;&#9;&#9;&#9;&#9;&#9;c-0.6,0-3.9,0-7.3,0.3C478.1,97.4,481.2,102.5,483.9,107.8z" style="fill: rgb(218, 219, 220);"/>
				</g>
			</g>
			
		</g><path d="M 381 0 H 382.1 V 37.200001 H 381 V 0 Z" class="st3" style="fill: rgb(255, 255, 255);" transform="matrix(1, 0, 0, 1, -173.50034713745117, 0)"/><path class="st3" d="M396,17.9c-1.4-1.1-2.8-1.7-4.1-1.7c-7.2,0-9.8,16.2-10.1,18.1l-0.2,1.4l1.4-0.5&#10;&#9;&#9;&#9;&#9;&#9;c0.6-0.2,14.6-5.5,15.7-11.9C398.9,21.4,398.1,19.5,396,17.9z M382.6,34.4c0,0,3.5-23.5,12.9-15.8&#10;&#9;&#9;&#9;&#9;&#9;C404.9,26.2,382.6,34.4,382.6,34.4z" style="fill: rgb(255, 255, 255);" transform="matrix(1, 0, 0, 1, -173.50034713745117, 0)"/>
<path class="st3" d="M381.2,34.3c-0.6-1.6-5.8-15.9-12.5-15.9c-1.6,0-3.2,0.9-4.6,2.6c-1.7,2-2.2,4-1.5,5.8&#10;&#9;&#9;&#9;&#9;&#9;c2.3,6.1,17,8.6,17.6,8.7l1.4,0.2L381.2,34.3z M364.8,21.5c7.8-9.3,15.6,13.1,15.6,13.1S357,30.8,364.8,21.5z" style="fill: rgb(255, 255, 255);" transform="matrix(1, 0, 0, 1, -173.50034713745117, 0)"/><path d="M 936.200012 0 H 937.300012 V 79.400002 H 936.200012 V 0 Z" class="st3" style="fill: rgb(255, 255, 255);" transform="matrix(-0.8695768117904663, 0, 0, -0.8695768117904663, 1341.7778129577637, 35.952030181884766)"/><path d="M 734.3271484375 4.833548545837402" style="fill: rgb(255, 255, 255); fill-opacity: 1; stroke: rgb(0, 0, 0); stroke-opacity: 1; stroke-width: 0; paint-order: fill;" transform="matrix(1, 0, 0, 1, -173.50034713745117, 0)"/><path d="M 605.3253173828125 247.01898193359375" style="fill: rgb(140, 209, 240); fill-opacity: 1; stroke: rgb(0, 0, 0); stroke-opacity: 1; stroke-width: 0; paint-order: fill;" transform="matrix(1, 0, 0, 1, -173.50034713745117, 0)"/><path d="M 569.3662719726562 255.93075561523438" style="fill: rgb(140, 209, 240); fill-opacity: 1; stroke: rgb(0, 0, 0); stroke-opacity: 1; stroke-width: 0; paint-order: fill;" transform="matrix(1, 0, 0, 1, -173.50034713745117, 0)"/><path d="M 349.6324157714844 184.91307067871094 C 344.7457580566406 184.91307067871094 340.6324157714844 182.8664093017578 337.29241943359375 178.7730712890625 C 333.94573974609375 174.67974853515625 332.2724304199219 169.66307067871094 332.2724304199219 163.72308349609375 C 332.2724304199219 156.46307373046875 334.2857666015625 150.34640502929688 338.3124084472656 145.37307739257812 C 342.3390808105469 140.39974975585938 347.2790832519531 137.91307067871094 353.1324157714844 137.91307067871094 C 355.4190979003906 137.91307067871094 357.54241943359375 138.1464080810547 359.5024108886719 138.61306762695312 C 361.45574951171875 139.0730743408203 362.8524169921875 139.54641723632812 363.6924133300781 140.0330810546875 L 364.8724365234375 140.75308227539062 L 360.3924255371094 149.93307495117188 C 359.37908935546875 149.05307006835938 357.9490966796875 148.22640991210938 356.1024169921875 147.4530792236328 C 354.24908447265625 146.6864013671875 352.57574462890625 146.30307006835938 351.0824279785156 146.30307006835938 C 348.049072265625 146.30307006835938 345.61907958984375 147.55641174316406 343.79241943359375 150.06307983398438 C 341.96575927734375 152.5697479248047 341.05242919921875 156.14306640625 341.05242919921875 160.7830810546875 C 341.05242919921875 165.42974853515625 341.99908447265625 169.2364044189453 343.8924255371094 172.2030792236328 C 345.7790832519531 175.17640686035156 348.3524169921875 176.66307067871094 351.6124267578125 176.66307067871094 C 353.7257385253906 176.66307067871094 355.63909912109375 176.00308227539062 357.3524169921875 174.68307495117188 C 359.0657653808594 173.36306762695312 360.2757568359375 171.6030731201172 360.982421875 169.403076171875 L 366.46240234375 172.56307983398438 C 365.00909423828125 176.4364013671875 362.7857666015625 179.46307373046875 359.79241943359375 181.64308166503906 C 356.799072265625 183.8230743408203 353.41241455078125 184.91307067871094 349.6324157714844 184.91307067871094 ZM 368.5079345703125 170.39308166503906 C 368.5079345703125 164.75973510742188 370.02459716796875 159.9830780029297 373.05792236328125 156.06307983398438 C 376.0979309082031 152.14974975585938 379.6512756347656 150.1930694580078 383.7179260253906 150.1930694580078 C 387.791259765625 150.1930694580078 390.9612731933594 151.51307678222656 393.2279357910156 154.153076171875 C 395.4879150390625 156.79307556152344 396.617919921875 160.28973388671875 396.617919921875 164.64306640625 C 396.617919921875 170.45640563964844 395.1579284667969 175.28640747070312 392.2379150390625 179.13307189941406 C 389.3112487792969 182.9864044189453 385.6246032714844 184.91307067871094 381.17791748046875 184.91307067871094 C 377.52459716796875 184.91307067871094 374.5012512207031 183.53640747070312 372.1079406738281 180.7830810546875 C 369.7079162597656 178.03640747070312 368.5079345703125 174.5730743408203 368.5079345703125 170.39308166503906 M 389.2279357910156 168.08306884765625 C 389.2279357910156 161.7030792236328 387.05126953125 158.51307678222656 382.69793701171875 158.51307678222656 C 378.1645812988281 158.51307678222656 375.8979187011719 161.50308227539062 375.8979187011719 167.4830780029297 C 375.8979187011719 170.6097412109375 376.53460693359375 173.05307006835938 377.80792236328125 174.81307983398438 C 379.0879211425781 176.5730743408203 380.7712707519531 177.4530792236328 382.8579406738281 177.4530792236328 C 384.9512634277344 177.4530792236328 386.5379333496094 176.6497344970703 387.617919921875 175.04307556152344 C 388.6912536621094 173.4364013671875 389.2279357910156 171.1164093017578 389.2279357910156 168.08306884765625 ZM 410.219482421875 184.18307495117188 C 407.8394775390625 184.18307495117188 405.9128112792969 183.403076171875 404.4394836425781 181.84307861328125 C 402.9661560058594 180.2764129638672 402.2294921875 178.21974182128906 402.2294921875 175.67308044433594 L 402.6294860839844 168.08306884765625 L 401.89947509765625 152.24307250976562 L 410.7494812011719 150.59307861328125 L 409.8894958496094 170.653076171875 C 409.8894958496094 172.54640197753906 410.2294921875 173.93307495117188 410.90948486328125 174.81307983398438 C 411.5894775390625 175.6930694580078 412.6794738769531 176.13307189941406 414.1794738769531 176.13307189941406 C 415.6728210449219 176.13307189941406 417.7394714355469 175.38307189941406 420.3794860839844 173.88307189941406 L 420.3794860839844 169.92308044433594 L 419.65948486328125 152.5730743408203 L 428.5694885253906 150.92308044433594 L 427.76947021484375 167.42308044433594 L 427.8394775390625 172.83306884765625 C 427.8394775390625 175.6464080810547 428.566162109375 178.4830780029297 430.01947021484375 181.34307861328125 L 423.14947509765625 184.38307189941406 C 421.70281982421875 181.5230712890625 420.82281494140625 179.2330780029297 420.5094909667969 177.51307678222656 C 416.5494689941406 181.95974731445312 413.1194763183594 184.18307495117188 410.219482421875 184.18307495117188 ZM 455.0990295410156 167.4830780029297 C 455.0990295410156 164.44973754882812 454.835693359375 162.42640686035156 454.30902099609375 161.41307067871094 C 453.77569580078125 160.39974975585938 452.5423583984375 159.89306640625 450.6090393066406 159.89306640625 C 448.6756896972656 159.89306640625 446.4757080078125 160.66307067871094 444.009033203125 162.2030792236328 L 444.009033203125 167.0230712890625 L 444.739013671875 182.5330810546875 L 435.8890380859375 184.18307495117188 L 436.67901611328125 168.14306640625 C 436.5057067871094 162.24974060058594 436.0223693847656 156.96974182128906 435.2290344238281 152.30307006835938 L 443.2190246582031 150.59307861328125 C 443.52569580078125 153.13973999023438 443.7456970214844 155.62307739257812 443.8790283203125 158.04307556152344 C 444.5390319824219 157.16307067871094 445.28570556640625 156.29640197753906 446.1190185546875 155.4430694580078 C 446.9590148925781 154.58306884765625 448.2790222167969 153.61306762695312 450.07904052734375 152.5330810546875 C 451.88568115234375 151.45974731445312 453.7890319824219 150.92308044433594 455.7890319824219 150.92308044433594 C 457.7890319824219 150.92308044433594 459.47235107421875 151.7030792236328 460.8390197753906 153.26307678222656 C 462.2056884765625 154.8230743408203 462.8890380859375 156.9464111328125 462.8890380859375 159.63307189941406 L 462.489013671875 167.0230712890625 L 463.2190246582031 182.86306762695312 L 454.30902099609375 184.51307678222656 L 455.0990295410156 167.4830780029297 ZM 473.04656982421875 152.24307250976562 L 473.04656982421875 145.04307556152344 L 481.9565734863281 143.33306884765625 L 481.0965881347656 152.24307250976562 L 489.0865783691406 152.24307250976562 L 488.3565673828125 157.653076171875 L 480.8365783691406 157.653076171875 L 480.5065612792969 171.4430694580078 C 480.5065612792969 173.50973510742188 480.7032470703125 174.88641357421875 481.0965881347656 175.5730743408203 C 481.49658203125 176.25308227539062 482.2232360839844 176.59307861328125 483.2765808105469 176.59307861328125 C 484.3365783691406 176.59307861328125 485.74658203125 176.34974670410156 487.506591796875 175.86306762695312 L 487.8965759277344 180.55307006835938 C 484.99658203125 182.9730682373047 482.4465637207031 184.18307495117188 480.24658203125 184.18307495117188 C 478.04656982421875 184.18307495117188 476.2398986816406 183.37974548339844 474.8265686035156 181.7730712890625 C 473.419921875 180.16641235351562 472.7165832519531 178.06640625 472.7165832519531 175.4730682373047 L 473.1165771484375 168.08306884765625 L 473.04656982421875 157.653076171875 L 468.49658203125 157.653076171875 L 469.2165832519531 152.24307250976562 L 473.04656982421875 152.24307250976562 Z" transform="matrix(1.1206477880477905, 0, 0, 1.1206477880477905, -250.088134765625, -69.38951873779297)" style="fill: rgb(51, 51, 51); white-space: pre; color: rgb(51, 51, 51);"/><path d="M 228.4438018798828 296.1488342285156 L 228.90380859375 291.3188171386719 L 248.8538055419922 291.3188171386719 L 248.393798828125 296.1488342285156 L 241.08380126953125 295.5188293457031 L 240.91380310058594 309.3788146972656 L 241.42379760742188 320.298828125 L 235.54380798339844 320.298828125 L 236.04380798339844 310.0888366699219 L 235.87379455566406 295.558837890625 L 228.4438018798828 296.1488342285156 ZM 263.555419921875 309.6688232421875 C 263.555419921875 307.7421569824219 263.3887634277344 306.45550537109375 263.055419921875 305.808837890625 C 262.7154235839844 305.16217041015625 261.92877197265625 304.8388366699219 260.6954345703125 304.8388366699219 C 259.46875 304.8388366699219 258.0687561035156 305.3288269042969 256.49542236328125 306.308837890625 L 256.49542236328125 309.3788146972656 L 256.9654235839844 319.24884033203125 L 251.29542541503906 320.298828125 L 251.79542541503906 310.0888366699219 L 251.29542541503906 288.8388366699219 L 257.04541015625 287.788818359375 L 256.49542236328125 298.6688232421875 L 256.49542236328125 303.5788269042969 C 256.9154357910156 303.0188293457031 257.39208984375 302.4754943847656 257.9254150390625 301.9488220214844 C 258.4587707519531 301.4154968261719 259.2854309082031 300.8121643066406 260.4054260253906 300.1388244628906 C 261.5254211425781 299.4654846191406 262.7220764160156 299.1288146972656 263.99542236328125 299.1288146972656 C 265.2687683105469 299.1288146972656 266.3387451171875 299.62548828125 267.2054138183594 300.61883544921875 C 268.0787658691406 301.6121520996094 268.5154113769531 302.9654846191406 268.5154113769531 304.6788330078125 L 268.25543212890625 309.3788146972656 L 268.7254333496094 319.4588317871094 L 263.055419921875 320.5088195800781 L 263.555419921875 309.6688232421875 ZM 280.905029296875 316.0188293457031 C 281.7117004394531 316.0188293457031 282.5650329589844 315.808837890625 283.46502685546875 315.3888244628906 C 284.3583679199219 314.9688415527344 285.058349609375 314.548828125 285.5650329589844 314.1288146972656 L 286.3150329589844 313.49884033203125 L 288.2550354003906 315.84881591796875 C 287.97503662109375 316.3221740722656 287.5383605957031 316.86883544921875 286.9450378417969 317.48883056640625 C 286.3583679199219 318.1021728515625 285.7650146484375 318.62548828125 285.1650390625 319.058837890625 C 284.5650329589844 319.4921569824219 283.76837158203125 319.885498046875 282.7750244140625 320.23883056640625 C 281.7750244140625 320.5854797363281 280.7450256347656 320.7588195800781 279.6850280761719 320.7588195800781 C 277.4183654785156 320.7588195800781 275.568359375 319.8988342285156 274.1350402832031 318.1788330078125 C 272.7083740234375 316.4588317871094 271.9950256347656 314.23883056640625 271.9950256347656 311.5188293457031 C 271.9950256347656 308.1054992675781 272.9883728027344 305.10882568359375 274.97503662109375 302.5288391113281 C 276.9683532714844 299.95550537109375 279.2950439453125 298.6688232421875 281.95501708984375 298.6688232421875 C 283.9950256347656 298.6688232421875 285.5816955566406 299.2421569824219 286.71502685546875 300.3888244628906 C 287.8483581542969 301.5354919433594 288.4150390625 303.1455078125 288.4150390625 305.2188415527344 C 288.4150390625 306.4521484375 288.20501708984375 307.8521728515625 287.7850341796875 309.4188232421875 L 286.9450378417969 310.298828125 L 276.4450378417969 311.2688293457031 C 276.9250183105469 314.43548583984375 278.41168212890625 316.0188293457031 280.905029296875 316.0188293457031 M 280.905029296875 302.99884033203125 C 279.67169189453125 302.99884033203125 278.6350402832031 303.4954833984375 277.7950439453125 304.48883056640625 C 276.95501708984375 305.4821472167969 276.46502685546875 306.74884033203125 276.3250427246094 308.288818359375 L 283.46502685546875 307.4088134765625 C 283.5450439453125 306.76214599609375 283.58502197265625 306.22882080078125 283.58502197265625 305.808837890625 C 283.58502197265625 303.93548583984375 282.69171142578125 302.99884033203125 280.905029296875 302.99884033203125 Z" transform="matrix(1.431218147277832, 0, 0, 1.431218147277832, 161.73936462402344, -345.6376953125)" style="fill: rgb(51, 51, 51); white-space: pre; color: rgb(51, 51, 51); stroke: rgb(0, 0, 0); stroke-width: 0;"/><path d="M 380.5552978515625 213.01348876953125 C 385.99530029296875 218.4534912109375 391.435302734375 221.17349243164062 396.87530517578125 221.17349243164062 C 399.6886291503906 221.17349243164062 401.9419860839844 220.51683044433594 403.63531494140625 219.2034912109375 C 405.3352966308594 217.89016723632812 406.185302734375 216.19349670410156 406.185302734375 214.11349487304688 C 406.185302734375 212.0334930419922 405.1619873046875 210.27349853515625 403.11529541015625 208.83349609375 C 401.0619812011719 207.39349365234375 398.58197021484375 206.13015747070312 395.67529296875 205.04348754882812 C 392.761962890625 203.9568328857422 389.86529541015625 202.72349548339844 386.9853210449219 201.34349060058594 C 384.1053161621094 199.97015380859375 381.6419677734375 198.0034942626953 379.5953063964844 195.44349670410156 C 377.5419616699219 192.8834991455078 376.51531982421875 189.78016662597656 376.51531982421875 186.1334991455078 C 376.51531982421875 180.3734893798828 378.9153137207031 175.39682006835938 383.7153015136719 171.2034912109375 C 388.51531982421875 167.01016235351562 394.21197509765625 164.9134979248047 400.8052978515625 164.9134979248047 C 403.8119812011719 164.9134979248047 406.7253112792969 165.23348999023438 409.5453186035156 165.87350463867188 C 412.358642578125 166.51348876953125 415.0786437988281 167.44015502929688 417.705322265625 168.65350341796875 L 411.17529296875 182.67349243164062 C 409.3819580078125 181.26683044433594 406.935302734375 179.97015380859375 403.8352966308594 178.7834930419922 C 400.7286376953125 177.60350036621094 398.0086364746094 177.01348876953125 395.67529296875 177.01348876953125 C 393.3352966308594 177.01348876953125 391.4453125 177.573486328125 390.00531005859375 178.69349670410156 C 388.5653076171875 179.81349182128906 387.8453063964844 181.3001708984375 387.8453063964844 183.15350341796875 C 387.8453063964844 185.0068359375 388.86865234375 186.65350341796875 390.9153137207031 188.09349060058594 C 392.9686279296875 189.5334930419922 395.4486389160156 190.8001708984375 398.3553161621094 191.89349365234375 C 401.2686462402344 192.98016357421875 404.1819763183594 194.18016052246094 407.0953063964844 195.49349975585938 C 410.0086364746094 196.8001708984375 412.4886474609375 198.73348999023438 414.5353088378906 201.29348754882812 C 416.58197021484375 203.85350036621094 417.6053161621094 206.9601593017578 417.6053161621094 210.61349487304688 C 417.6053161621094 216.6268310546875 415.205322265625 221.89016723632812 410.4053039550781 226.4034881591797 C 405.6053161621094 230.9168243408203 400.00531005859375 233.17349243164062 393.6053161621094 233.17349243164062 C 388.8052978515625 233.17349243164062 384.54864501953125 232.02015686035156 380.8352966308594 229.7135009765625 C 377.5753173828125 227.72682189941406 375.27197265625 225.96682739257812 373.92529296875 224.43350219726562 L 373.0653076171875 223.3734893798828 L 380.5552978515625 213.01348876953125 ZM 453.7023620605469 207.823486328125 C 453.7023620605469 203.41015625 453.31903076171875 200.46682739257812 452.5523681640625 198.99349975585938 C 451.7856750488281 197.52015686035156 449.99237060546875 196.7834930419922 447.17236328125 196.7834930419922 C 444.3590087890625 196.7834930419922 441.1590270996094 197.90350341796875 437.5723571777344 200.14349365234375 L 437.5723571777344 207.15350341796875 L 438.6323547363281 229.7135009765625 L 425.67236328125 232.11349487304688 L 426.8223571777344 208.7834930419922 L 425.67236328125 160.2135009765625 L 438.8223571777344 157.81349182128906 L 437.5723571777344 182.67349243164062 L 437.5723571777344 193.90350341796875 C 438.5323486328125 192.6234893798828 439.6223449707031 191.3768310546875 440.84234619140625 190.1634979248047 C 442.0556945800781 188.94349670410156 443.9423522949219 187.56683349609375 446.5023498535156 186.0334930419922 C 449.0623474121094 184.50015258789062 451.79901123046875 183.73348999023438 454.71234130859375 183.73348999023438 C 457.6257019042969 183.73348999023438 460.0723571777344 184.8668212890625 462.0523681640625 187.1334991455078 C 464.0390319824219 189.40682983398438 465.0323486328125 192.496826171875 465.0323486328125 196.40350341796875 L 464.4523620605469 207.15350341796875 L 465.5123596191406 230.19349670410156 L 452.5523681640625 232.59349060058594 L 453.7023620605469 207.823486328125 ZM 493.3513488769531 222.32350158691406 C 495.2046813964844 222.32350158691406 497.1546630859375 221.84349060058594 499.20135498046875 220.8834991455078 C 501.2546691894531 219.92349243164062 502.85467529296875 218.9635009765625 504.0013427734375 218.0034942626953 L 505.7313537597656 216.56349182128906 L 510.1513366699219 221.93350219726562 C 509.5113525390625 223.02682495117188 508.51800537109375 224.27682495117188 507.17132568359375 225.68350219726562 C 505.83135986328125 227.0901641845703 504.4713439941406 228.2901611328125 503.0913391113281 229.2834930419922 C 501.718017578125 230.27682495117188 499.8946838378906 231.17349243164062 497.621337890625 231.97349548339844 C 495.3480224609375 232.77349853515625 492.99468994140625 233.17349243164062 490.56134033203125 233.17349243164062 C 485.38134765625 233.17349243164062 481.15802001953125 231.2034912109375 477.891357421875 227.26348876953125 C 474.63134765625 223.3301544189453 473.0013427734375 218.26016235351562 473.0013427734375 212.05349731445312 C 473.0013427734375 204.2401580810547 475.2713317871094 197.39016723632812 479.81134033203125 191.5034942626953 C 484.3580017089844 185.6168212890625 489.6713562011719 182.67349243164062 495.7513427734375 182.67349243164062 C 500.4246826171875 182.67349243164062 504.0546875 183.98683166503906 506.641357421875 186.61349487304688 C 509.23468017578125 189.23348999023438 510.5313415527344 192.9134979248047 510.5313415527344 197.65350341796875 C 510.5313415527344 200.46682739257812 510.05133056640625 203.6668243408203 509.0913391113281 207.2534942626953 L 507.17132568359375 209.26348876953125 L 483.1713562011719 211.47349548339844 C 484.25799560546875 218.7068328857422 487.6513366699219 222.32350158691406 493.3513488769531 222.32350158691406 M 493.3513488769531 192.56349182128906 C 490.5313415527344 192.56349182128906 488.1613464355469 193.70016479492188 486.2413330078125 195.97349548339844 C 484.32135009765625 198.2401580810547 483.20135498046875 201.1334991455078 482.88134765625 204.65350341796875 L 499.20135498046875 202.64349365234375 C 499.3946838378906 201.170166015625 499.4913330078125 199.9534912109375 499.4913330078125 198.99349975585938 C 499.4913330078125 194.7068328857422 497.4446716308594 192.56349182128906 493.3513488769531 192.56349182128906 ZM 536.1664428710938 222.32350158691406 C 538.019775390625 222.32350158691406 539.9697875976562 221.84349060058594 542.0164794921875 220.8834991455078 C 544.06982421875 219.92349243164062 545.6697998046875 218.9635009765625 546.8164672851562 218.0034942626953 L 548.5464477539062 216.56349182128906 L 552.9664916992188 221.93350219726562 C 552.3264770507812 223.02682495117188 551.3331298828125 224.27682495117188 549.9864501953125 225.68350219726562 C 548.646484375 227.0901641845703 547.2864990234375 228.2901611328125 545.906494140625 229.2834930419922 C 544.5331420898438 230.27682495117188 542.7097778320312 231.17349243164062 540.4364624023438 231.97349548339844 C 538.1631469726562 232.77349853515625 535.809814453125 233.17349243164062 533.37646484375 233.17349243164062 C 528.1964721679688 233.17349243164062 523.97314453125 231.2034912109375 520.7064819335938 227.26348876953125 C 517.4464721679688 223.3301544189453 515.8164672851562 218.26016235351562 515.8164672851562 212.05349731445312 C 515.8164672851562 204.2401580810547 518.0864868164062 197.39016723632812 522.62646484375 191.5034942626953 C 527.1731567382812 185.6168212890625 532.4864501953125 182.67349243164062 538.5664672851562 182.67349243164062 C 543.2398071289062 182.67349243164062 546.8698120117188 183.98683166503906 549.4564819335938 186.61349487304688 C 552.0498046875 189.23348999023438 553.346435546875 192.9134979248047 553.346435546875 197.65350341796875 C 553.346435546875 200.46682739257812 552.866455078125 203.6668243408203 551.906494140625 207.2534942626953 L 549.9864501953125 209.26348876953125 L 525.9864501953125 211.47349548339844 C 527.0731201171875 218.7068328857422 530.4664916992188 222.32350158691406 536.1664428710938 222.32350158691406 M 536.1664428710938 192.56349182128906 C 533.3464965820312 192.56349182128906 530.9764404296875 193.70016479492188 529.0564575195312 195.97349548339844 C 527.136474609375 198.2401580810547 526.0164794921875 201.1334991455078 525.6964721679688 204.65350341796875 L 542.0164794921875 202.64349365234375 C 542.2097778320312 201.170166015625 542.3064575195312 199.9534912109375 542.3064575195312 198.99349975585938 C 542.3064575195312 194.7068328857422 540.2598266601562 192.56349182128906 536.1664428710938 192.56349182128906 ZM 587.3316040039062 183.6334991455078 C 591.4249267578125 183.6334991455078 594.8649291992188 185.42681884765625 597.651611328125 189.01348876953125 C 600.438232421875 192.59349060058594 601.8316040039062 197.42349243164062 601.8316040039062 203.5034942626953 C 601.8316040039062 212.01683044433594 599.6382446289062 218.9134979248047 595.2515869140625 224.19349670410156 C 590.8649291992188 229.47349548339844 585.4082641601562 232.11349487304688 578.881591796875 232.11349487304688 C 577.5415649414062 232.11349487304688 576.0382690429688 232.01683044433594 574.37158203125 231.82350158691406 L 574.8515625 250.1634979248047 L 561.7015991210938 252.56349182128906 L 562.9515991210938 208.7834930419922 L 563.0415649414062 208.7834930419922 C 562.7882690429688 200.2101593017578 562.0848999023438 192.53016662597656 560.9315795898438 185.74349975585938 L 572.5515747070312 183.2534942626953 C 572.9315795898438 186.64016723632812 573.2515869140625 190.00015258789062 573.5115966796875 193.33349609375 C 573.6382446289062 193.01348876953125 574.2915649414062 192.1334991455078 575.4716186523438 190.69349670410156 C 576.6582641601562 189.2534942626953 578.4049072265625 187.71682739257812 580.7116088867188 186.08349609375 C 583.0115966796875 184.45016479492188 585.21826171875 183.6334991455078 587.3316040039062 183.6334991455078 M 583.5916137695312 196.11349487304688 C 580.1982421875 196.11349487304688 576.901611328125 197.0401611328125 573.7015991210938 198.89349365234375 L 573.7015991210938 207.15350341796875 L 574.0816040039062 220.8834991455078 C 577.5415649414062 221.4568328857422 580.1649169921875 221.74349975585938 581.9515991210938 221.74349975585938 C 588.0982666015625 221.74349975585938 591.1715698242188 217.47349548339844 591.1715698242188 208.93350219726562 C 591.1715698242188 200.38682556152344 588.6448974609375 196.11349487304688 583.5916137695312 196.11349487304688 ZM 608.066650390625 225.82350158691406 C 608.066650390625 225.82350158691406 608.066650390625 225.28683471679688 608.066650390625 224.2135009765625 C 608.066650390625 223.14683532714844 608.8333129882812 221.8268280029297 610.3666381835938 220.2534942626953 C 611.9066162109375 218.68682861328125 613.699951171875 217.9034881591797 615.7466430664062 217.9034881591797 C 617.7932739257812 217.9034881591797 619.3466186523438 218.4635009765625 620.4066162109375 219.58349609375 C 621.4599609375 220.7034912109375 621.9866333007812 222.35350036621094 621.9866333007812 224.5334930419922 C 621.9866333007812 226.7068328857422 621.2499389648438 228.61016845703125 619.776611328125 230.24349975585938 C 618.3032836914062 231.8768310546875 616.5599365234375 232.69349670410156 614.546630859375 232.69349670410156 C 612.5332641601562 232.69349670410156 610.949951171875 232.08349609375 609.796630859375 230.86349487304688 C 608.643310546875 229.65016174316406 608.066650390625 227.97015380859375 608.066650390625 225.82350158691406 M 626.0166015625 164.9134979248047 L 620.6466064453125 207.44349670410156 L 611.526611328125 208.7834930419922 L 611.526611328125 167.31349182128906 L 626.0166015625 164.9134979248047 Z" transform="matrix(1.007940411567688, 0, 0, 1.007940411567688, -93.01207733154297, 83.8097915649414)" style="fill: rgb(51, 51, 51); white-space: pre; color: rgb(51, 51, 51);"/></svg>